HIERARCHY
ROOT RootJoint
{
    OFFSET   0.000000   0.000000   0.000000
    CHANNELS 6 Xposition Yposition Zposition Xrotation Yrotation Zrotation
    JOINT pelvis_lowerback
    {
        OFFSET   0.000000   0.093605   0.000000
        CHANNELS 3 Xrotation Yrotation Zrotation
        JOINT lowerback_torso
        {
            OFFSET   0.000000   0.100000   0.000000
            CHANNELS 3 Xrotation Yrotation Zrotation
            JOINT torso_head
            {
                OFFSET   0.000000   0.282350   0.000000
                CHANNELS 3 Xrotation Yrotation Zrotation
                End Site
                {
                    OFFSET   0.000000   0.192650   0.000000
                }
            }
            JOINT rTorso_Clavicle
            {
                OFFSET  -0.001000   0.157500   0.000000
                CHANNELS 3 Xrotation Yrotation Zrotation
                JOINT rShoulder
                {
                    OFFSET  -0.117647   0.000000   0.000000
                    CHANNELS 3 Xrotation Yrotation Zrotation
                    JOINT rElbow
                    {
                        OFFSET  -0.245000   0.000000   0.000000
                        CHANNELS 3 Xrotation Yrotation Zrotation
                        JOINT rWrist
                        {
                            OFFSET  -0.240000   0.000000   0.000000
                            CHANNELS 3 Xrotation Yrotation Zrotation
                            End Site
                            {
                                OFFSET  -0.116353  -0.002500   0.000000
                            }
                        }
                    }
                }
            }
            JOINT lTorso_Clavicle
            {
                OFFSET   0.001000   0.157500   0.000000
                CHANNELS 3 Xrotation Yrotation Zrotation
                JOINT lShoulder
                {
                    OFFSET   0.117647   0.000000   0.000000
                    CHANNELS 3 Xrotation Yrotation Zrotation
                    JOINT lElbow
                    {
                        OFFSET   0.245000   0.000000   0.000000
                        CHANNELS 3 Xrotation Yrotation Zrotation
                        JOINT lWrist
                        {
                            OFFSET   0.240000   0.000000   0.000000
                            CHANNELS 3 Xrotation Yrotation Zrotation
                            End Site
                            {
                                OFFSET   0.116353  -0.002500   0.000000
                            }
                        }
                    }
                }
            }
        }
    }
    JOINT rHip
    {
        OFFSET  -0.100000  -0.051395   0.000000
        CHANNELS 3 Xrotation Yrotation Zrotation
        JOINT rKnee
        {
            OFFSET   0.000000  -0.410000   0.000000
            CHANNELS 3 Xrotation Yrotation Zrotation
            JOINT rAnkle
            {
                OFFSET   0.000000  -0.390000   0.000000
                CHANNELS 3 Xrotation Yrotation Zrotation
                JOINT rToeJoint
                {
                    OFFSET   0.000000  -0.050000   0.130000
                    CHANNELS 3 Xrotation Yrotation Zrotation
                    End Site
                    {
                        OFFSET  -0.010000   0.002000   0.060000
                    }
                }
            }
        }
    }
    JOINT lHip
    {
        OFFSET   0.100000  -0.051395   0.000000
        CHANNELS 3 Xrotation Yrotation Zrotation
        JOINT lKnee
        {
            OFFSET   0.000000  -0.410000   0.000000
            CHANNELS 3 Xrotation Yrotation Zrotation
            JOINT lAnkle
            {
                OFFSET   0.000000  -0.390000   0.000000
                CHANNELS 3 Xrotation Yrotation Zrotation
                JOINT lToeJoint
                {
                    OFFSET   0.000000  -0.050000   0.130000
                    CHANNELS 3 Xrotation Yrotation Zrotation
                    End Site
                    {
                        OFFSET   0.010000   0.002000   0.060000
                    }
                }
            }
        }
    }
}
MOTION
Frames: 14
Frame Time:   0.008333
 -2.529909   0.888538   4.612835 -157.027282 -50.810581 -163.120285   6.034308   1.115117  -2.265405   6.849519  -0.021547  -0.694081   0.628299   0.318448   0.670597   2.047027  -5.147397   1.589944   4.262500  -0.418169  48.913068  -0.377341  83.241942   0.360694   0.015139   4.864531  -7.370518   3.325392   7.463134  -5.811243  -7.350892  10.572209 -47.979626  -0.000929 -74.629513  -0.002013  -3.829882  -4.931126  17.135895   8.987543  -6.396057  -7.677757  24.192651   0.000177   0.006042 -19.267172  -4.014695  -0.628473   1.235684   0.000011   0.000002   3.965692  13.278362  20.730613  30.129783   0.001108   0.003883  -1.617226  14.032899  -3.316291 -21.824953   0.002008   0.020003
 -2.530641   0.889180   4.613502 -157.346651 -50.328643 -163.515033   6.116513   1.230726  -2.167438   6.803682   0.082828  -0.682650   0.698679   0.151606   0.725023   1.982650  -5.262203   1.297829   4.031369  -0.284526  48.755678  -0.497836  85.210713   0.478241  -0.012433   4.826036  -7.258356   3.617115   7.859267  -5.774811  -6.684139  10.640147 -48.059209   0.001031 -74.755682   0.000576  -3.847719  -4.734073  16.919015   9.053349  -6.105422  -7.687742  23.746700   0.000148   0.005786 -18.979505  -3.775785  -0.633425   1.271869   0.000031   0.000002   3.862645  13.409671  20.813965  30.508059   0.000407   0.001999  -1.030537  13.882991  -3.501222 -23.193807   0.000759   0.021599
 -2.531503   0.889778   4.614152 -157.611715 -49.796606 -163.853935   6.201579   1.363360  -2.071599   6.783421   0.202300  -0.670277   0.777372  -0.007692   0.774703   1.906887  -5.364532   0.988381   3.800413  -0.150712  48.590655  -0.761005  87.076998   0.739200  -0.018687   4.931571  -7.143142   3.898457   8.254411  -5.701729  -6.061009  10.713563 -48.101636   0.002326 -74.879750   0.002441  -3.845888  -4.585033  16.699537   9.149801  -5.796418  -7.727738  23.326976   0.000116   0.005602 -18.714778  -3.516642  -0.642939   1.316469   0.000058   0.000003   3.763554  13.527145  20.889534  31.006815  -0.000395   0.000019  -0.424229  13.718324  -3.678553 -24.503804  -0.000060   0.023175
 -2.532492   0.890337   4.614773 -157.851494 -49.254003 -164.160020   6.271355   1.498533  -1.977619   6.764614   0.327749  -0.653391   0.854263  -0.156730   0.821591   1.829831  -5.460125   0.682341   3.579361  -0.025494  48.426832  -1.759455  88.824204   1.736523  -0.017455   5.083238  -7.047678   4.163815   8.640350  -5.611110  -5.480981  10.790647 -48.123097   0.003042 -74.996041   0.003607  -3.838770  -4.453465  16.516631   9.258404  -5.486834  -7.787907  22.922818   0.000070   0.005438 -18.465331  -3.255234  -0.656897   1.347896   0.000073   0.000002   3.678221  13.636292  20.948643  31.533280  -0.001114  -0.001697   0.153680  13.556115  -3.844716 -25.653311  -0.000661   0.023802
 -2.533586   0.890849   4.615363 -158.072428 -48.723920 -164.440012   6.324375   1.628345  -1.883558   6.739885   0.450541  -0.630218   0.925927  -0.295942   0.865936   1.755891  -5.551160   0.388213   3.371839   0.090239  48.269263 -175.818858  89.541477 175.795778  -0.013943   5.243327  -6.968834   4.410715   9.010165  -5.511605  -4.942541  10.867380 -48.131702   0.003360 -75.105192   0.004261  -3.829449  -4.332652  16.368222   9.372049  -5.183373  -7.859376  22.534672   0.000010   0.005238 -18.228090  -2.997519  -0.674098   1.560016   0.000248   0.000016   3.604125  13.738339  20.993348  32.055016  -0.001680  -0.003027   0.698999  13.398941  -3.999684 -26.692667  -0.001120   0.023697
 -2.534763   0.891312   4.615927 -158.279020 -48.211383 -164.701787   6.362459   1.751422  -1.786119   6.708294   0.567958  -0.599677   0.991720  -0.425813   0.907911   1.686438  -5.637383   0.110129   3.178465   0.197468  48.120227 -179.108222  88.018609 179.085782  -0.009958   5.399455  -6.899874   4.638753   9.360406  -5.409134  -4.443271  10.941291 -48.132617   0.003425 -75.207970   0.004564  -3.818380  -4.222307  16.246324   9.486274  -4.895738  -7.938429  22.164052  -0.000055   0.005028 -18.017097  -2.755355  -0.692407   1.559971   0.000199   0.000013   3.540647  13.835282  21.027681  32.559409  -0.002094  -0.003994   1.211089  13.248517  -4.143819 -27.650624  -0.001467   0.023110
 -2.536005   0.891723   4.616465 -158.472103 -47.721152 -164.946625   6.388275   1.865395  -1.686069   6.670844   0.677646  -0.561812   1.051897  -0.546965   0.947815   1.622118  -5.718811  -0.150043   2.999153   0.297188  47.981035 -179.522681  86.596694 179.501446  -0.006153   5.548074  -6.835621   4.848183   9.689311  -5.306180  -3.980887  11.010781 -48.128560   0.003333 -75.305114   0.004632  -3.805548  -4.123039  16.143570   9.599130  -4.621376  -8.021469  21.811574  -0.000122   0.004789 -17.821977  -2.524045  -0.711475   1.559929   0.000159   0.000010   3.485898  13.927090  21.053217  33.042370  -0.002370  -0.004648   1.690482  13.105130  -4.277792 -28.548277  -0.001725   0.022216
 -2.537179   0.892015   4.617096 -158.548830 -47.361406 -165.088237   6.486165   1.923043  -1.627394   6.660813   0.740704  -0.522383   1.151429  -0.714827   1.009456   1.579183  -5.785568  -0.373657   2.778795   0.445664  47.747700 -179.699530  85.258682 179.678076   0.020698   5.606625  -6.767591   4.997034   9.993811  -5.159685  -3.630138  11.135659 -47.866237   0.002682 -75.573285   0.005302  -3.818825  -3.927375  15.811995   9.759088  -4.451205  -8.095883  21.473165  -0.000219   0.004446 -17.598127  -2.312330  -0.695328   1.319382  -0.000041  -0.000036   3.352957  13.777851  21.101210  33.746165  -0.003098  -0.006053   1.298901  12.761150  -4.373404 -26.463837   0.003988   0.005322
 -2.538425   0.892260   4.617832 -158.602352 -47.009245 -165.214054   6.599942   1.997909  -1.579951   6.672105   0.813984  -0.477689   1.255335  -0.873354   1.061561   1.529010  -5.838925  -0.602617   2.563620   0.588243  47.514886 -179.796259  84.008293 179.774703   0.050068   5.663841  -6.701799   5.114136  10.291351  -4.946355  -3.336111  11.259063 -47.560909   0.001402 -75.837210   0.005228  -3.804363  -3.823771  15.561673   9.924970  -4.294493  -8.179138  21.155116  -0.000314   0.004152 -17.432886  -2.121244  -0.672756   1.351352  -0.000010  -0.000030   3.196715  13.616661  21.164024  34.413044  -0.003641  -0.006964   0.927157  12.437334  -4.464628 -24.560773   0.007081  -0.006916
 -2.539786   0.892458   4.618688 -158.648085 -46.662454 -165.333509   6.718690   2.082367  -1.536263   6.691974   0.896755  -0.427914   1.356398  -1.020792   1.107207   1.476492  -5.883387  -0.829107   2.357900   0.723875  47.290588 -179.856248  82.839694 179.834997   0.079940   5.724840  -6.642165   5.213155  10.579859  -4.702501  -3.077980  11.381315 -47.243765  -0.000006 -76.088243   0.004758  -3.777704  -3.764397  15.390095  10.089601  -4.139396  -8.273629  20.846660  -0.000418   0.003898 -17.274371  -1.933929  -0.654351   1.384126   0.000020  -0.000025   3.022416  13.453972  21.232083  35.027792  -0.003978  -0.007455   0.579895  12.135686  -4.551851 -22.817035   0.008523  -0.015475
 -2.541289   0.892603   4.619668 -158.687556 -46.322381 -165.447402   6.838319   2.171376  -1.491579   6.716426   0.984906  -0.373564   1.452789  -1.157982   1.148642   1.424259  -5.921177  -1.047503   2.163382   0.852577  47.077813 -179.896071  81.748041 179.875562   0.109557   5.787607  -6.586146   5.300197  10.857371  -4.449104  -2.845661  11.501377 -46.929456  -0.001295 -76.324691   0.004120  -3.746273  -3.725463  15.271497  10.252531  -3.985634  -8.380608  20.548861  -0.000530   0.003670 -17.124741  -1.751899  -0.640213   1.418541   0.000050  -0.000021   2.835107  13.291861  21.302427  35.592381  -0.004141  -0.007630   0.255436  11.854622  -4.635082 -21.218718   0.008936  -0.021183
 -2.542946   0.892689   4.620769 -158.720653 -45.989876 -165.556108   6.956452   2.261761  -1.443550   6.743666   1.075330  -0.315013   1.544047  -1.285712   1.187103   1.373966  -5.953707  -1.254490   1.980884   0.974528  46.877988 -179.923577  80.728751 179.904177   0.138365   5.849538  -6.530736   5.378358  11.122410  -4.197589  -2.633496  11.618020 -46.625666  -0.002359 -76.546472   0.003448  -3.713303  -3.696561  15.186368  10.413980  -3.833549  -8.499990  20.263092  -0.000647   0.003460 -16.985722  -1.575675  -0.629622   1.454978   0.000081  -0.000019   2.638943  13.131608  21.374337  36.110924  -0.004169  -0.007577  -0.047722  11.592694  -4.714348 -19.753706   0.008726  -0.024709
 -2.544763   0.892711   4.621986 -158.747404 -45.665423 -165.660434   7.071485   2.351330  -1.391120   6.772490   1.165785  -0.252629   1.630108  -1.404680   1.223274   1.326604  -5.982002  -1.448353   1.810621   1.089927  46.691583 -179.943027  79.777403 179.924997   0.166006   5.908636  -6.473828   5.449323  11.374105  -3.954083  -2.438083  11.730297 -46.336271  -0.003170 -76.754114   0.002811  -3.680215  -3.673113  15.122166  10.574035  -3.683442  -8.631062  19.990324  -0.000764   0.003262 -16.858446  -1.405382  -0.621824   1.493635   0.000114  -0.000017   2.437270  12.974048  21.447749  36.587448  -0.004096  -0.007365  -0.330966  11.348584  -4.789695 -18.410918   0.008162  -0.026596
 -2.546636   0.892736   4.623287 -158.721266 -45.440598 -165.671399   7.201611   2.397851  -1.393627   6.833454   1.234409  -0.242941   1.701964  -1.503219   1.300125   1.293243  -6.024934  -1.573703   1.645381   1.233832  46.455145 -179.959110  79.058936 179.942466   0.206639   6.049287  -6.431673   5.440784  11.612266  -3.667719  -2.357700  11.908805 -45.857591  -0.006012 -77.015553   0.000690  -3.668165  -3.597300  14.888025  10.765032  -3.627781  -8.808437  19.702763  -0.000920   0.003084 -16.728888  -1.257532  -0.562711   1.522523   0.000118  -0.000015   2.294429  12.560069  21.469488  36.891508  -0.004027  -0.007026  -1.366109  11.004172  -4.729960 -17.090575   0.007998  -0.031437
